<svg xmlns="http://www.w3.org/2000/svg" viewBox="0 0 48 48" role="img" aria-labelledby="lmTitle">
  <title id="lmTitle">RUHR-PROTECT Schutzschild</title>
  <defs>
    <linearGradient id="lmG" x1="8" y1="4" x2="40" y2="44" gradientUnits="userSpaceOnUse">
      <stop stop-color="#0ea5e9"/>
      <stop offset="1" stop-color="#0c4a6e"/>
    </linearGradient>
  </defs>
  <path
    d="M24 3.5 40.5 11.2v14.3c0 9.2-5.2 17.7-13.5 22.2a1.2 1.2 0 0 1-1 0C17.7 43.2 12.5 34.7 12.5 25.5V11.2L24 3.5Z"
    fill="url(#lmG)"
    stroke="#075985"
    stroke-width="1"
  />
  <path
    d="M14 21c3.5-2.5 7-1.8 10 0s6.5 2.5 10 0"
    fill="none"
    stroke="#fff"
    stroke-width="2"
    stroke-linecap="round"
    opacity=".95"
  />
  <path
    d="M14 27c3.5-2.2 7-1.5 10 .8s6.5 2 10-.3"
    fill="none"
    stroke="#fff"
    stroke-width="1.6"
    stroke-linecap="round"
    opacity=".88"
  />
  <path
    d="M16 33c2.8-1.5 5.5-1 8 .5"
    fill="none"
    stroke="#fff"
    stroke-width="1.3"
    stroke-linecap="round"
    opacity=".75"
  />
  <circle cx="24" cy="16" r="2.2" fill="#fff" opacity=".95"/>
</svg>
